<svg width="105" height="144" viewBox="0 0 105 144" fill="none" xmlns="http://www.w3.org/2000/svg">
<path d="M102 50C102 77.6142 79.6142 100 52 100C24.3858 100 2 77.6142 2 50C2 22.3858 24.3858 0 52 0C79.6142 0 102 22.3858 102 50Z" fill="#E9E9E9"/>
<path d="M65.6328 49.7266V46.4453C65.6328 43.4245 65.1771 40.3906 64.2656 37.3438C61.7135 28.8281 57.1432 24.5703 50.5547 24.5703C48.3932 24.5703 46.4661 25.0781 44.7734 26.0938C43.1068 27.1094 41.7526 28.4245 40.7109 30.0391C38.0807 34.1276 36.7656 39.362 36.7656 45.7422V47.6953C36.7656 50.5339 37.1693 53.4635 37.9766 56.4844C39.5651 62.3698 42.1562 66.3932 45.75 68.5547C47.4427 69.5703 49.1094 70.0781 50.75 70.0781H52.625C54.1615 70.0781 55.8411 69.5052 57.6641 68.3594C62.9766 65.0781 65.6328 58.8672 65.6328 49.7266ZM23.7969 48.125V46.9141C23.7969 43.0859 24.513 39.3229 25.9453 35.625C28.7578 28.4115 33.6016 23.4766 40.4766 20.8203C43.888 19.4922 47.2474 18.8281 50.5547 18.8281H51.7656C55.75 18.8281 59.4479 19.5443 62.8594 20.9766C73.276 25.3516 78.4844 34.3099 78.4844 47.8516C78.4844 52.7995 77.2474 57.5651 74.7734 62.1484C73.3932 64.7005 71.5703 67.0573 69.3047 69.2188C68.8099 69.6875 67.7812 70.5078 66.2188 71.6797C64.6823 72.8255 63.9141 73.6068 63.9141 74.0234C63.9141 74.9349 64.9557 76.0026 67.0391 77.2266C69.1224 78.4766 71.6875 79.4531 74.7344 80.1562C77.7812 80.8854 79.3047 81.7578 79.3047 82.7734C79.3047 83.8151 78.4583 84.7266 76.7656 85.5078C75.099 86.2891 73.0547 86.6797 70.6328 86.6797C68.237 86.6797 65.8542 86.1589 63.4844 85.1172C45.9062 77.4349 35.737 72.3828 32.9766 69.9609C30.2422 67.513 28.0286 64.4271 26.3359 60.7031C24.6432 56.9531 23.7969 52.7604 23.7969 48.125Z" fill="#818181"/>
<path fill-rule="evenodd" clip-rule="evenodd" d="M56.6064 66.6619L56.6131 66.6578C61.0899 63.8927 63.6328 58.5226 63.6328 49.7266V46.4453C63.6328 43.6286 63.2083 40.7877 62.3495 37.9169C61.1347 33.8637 59.4984 31.0324 57.5605 29.227C55.6673 27.4632 53.3735 26.5703 50.5547 26.5703C48.7228 26.5703 47.1597 26.9958 45.8083 27.8052C44.3982 28.6657 43.2665 29.7675 42.3923 31.1221C40.0257 34.8013 38.7656 39.6285 38.7656 45.7422V47.6953C38.7656 50.3423 39.1418 53.0975 39.9082 55.966C41.4229 61.576 43.7964 65.0459 46.7808 66.8408C48.2254 67.7072 49.5398 68.0781 50.75 68.0781H52.625C53.6625 68.0781 54.9732 67.6885 56.5997 66.6661L56.6064 66.6619ZM45.75 68.5547C42.1562 66.3932 39.5651 62.3698 37.9766 56.4844C37.1693 53.4635 36.7656 50.5339 36.7656 47.6953V45.7422C36.7656 39.362 38.0807 34.1276 40.7109 30.0391C41.7526 28.4245 43.1068 27.1094 44.7734 26.0938C46.4661 25.0781 48.3932 24.5703 50.5547 24.5703C57.1432 24.5703 61.7135 28.8281 64.2656 37.3438C65.1771 40.3906 65.6328 43.4245 65.6328 46.4453V49.7266C65.6328 58.8672 62.9766 65.0781 57.6641 68.3594C55.8411 69.5052 54.1615 70.0781 52.625 70.0781H50.75C49.1094 70.0781 47.4427 69.5703 45.75 68.5547ZM24.0803 34.9026L24.0819 34.8985C27.0865 27.1923 32.3266 21.8258 39.7533 18.9557C43.3706 17.5477 46.9748 16.8281 50.5547 16.8281H51.7656C55.9952 16.8281 59.9586 17.5896 63.6336 19.1325L63.6338 19.1326C69.2047 21.4724 73.4644 25.0818 76.3071 29.9713C79.1352 34.8356 80.4844 40.8331 80.4844 47.8516C80.4844 53.1487 79.1563 58.2391 76.5334 63.0984L76.5326 63.0998C75.0453 65.85 73.0903 68.3714 70.6852 70.6658L70.6802 70.6707C70.089 71.2308 68.969 72.117 67.4188 73.2797L67.4144 73.2829C66.9085 73.6603 66.5227 73.9722 66.2403 74.2224C66.599 74.5602 67.1805 74.99 68.0522 75.5021L68.0601 75.5068L68.0681 75.5116C69.9287 76.628 72.2859 77.5387 75.1841 78.2075L75.192 78.2093L75.1999 78.2112C76.7877 78.5912 78.1478 79.0445 79.156 79.6218C80.0765 80.149 81.3047 81.1396 81.3047 82.7734C81.3047 85.0776 79.4248 86.482 77.6099 87.3209C75.6086 88.258 73.2575 88.6797 70.6328 88.6797C67.9392 88.6797 65.2845 88.0927 62.6827 86.9495C53.8813 83.103 46.9109 79.9046 41.784 77.3575C36.7454 74.8544 33.2678 72.8771 31.6575 71.4643L31.65 71.4577L31.6426 71.451C28.6793 68.7983 26.3094 65.4779 24.5152 61.5307L24.513 61.526C22.6896 57.4864 21.7969 53.0081 21.7969 48.125V46.9141C21.7969 42.83 22.5621 38.8225 24.0803 34.9026ZM63.4844 85.1172C65.8542 86.1589 68.237 86.6797 70.6328 86.6797C73.0547 86.6797 75.099 86.2891 76.7656 85.5078C78.4583 84.7266 79.3047 83.8151 79.3047 82.7734C79.3047 81.7578 77.7812 80.8854 74.7344 80.1562C71.6875 79.4531 69.1224 78.4766 67.0391 77.2266C64.9557 76.0026 63.9141 74.9349 63.9141 74.0234C63.9141 73.6068 64.6823 72.8255 66.2188 71.6797C67.7812 70.5078 68.8099 69.6875 69.3047 69.2188C71.5703 67.0573 73.3932 64.7005 74.7734 62.1484C77.2474 57.5651 78.4844 52.7995 78.4844 47.8516C78.4844 34.3099 73.276 25.3516 62.8594 20.9766C59.4479 19.5443 55.75 18.8281 51.7656 18.8281H50.5547C47.2474 18.8281 43.888 19.4922 40.4766 20.8203C33.6016 23.4766 28.7578 28.4115 25.9453 35.625C24.513 39.3229 23.7969 43.0859 23.7969 46.9141V48.125C23.7969 52.7604 24.6432 56.9531 26.3359 60.7031C28.0286 64.4271 30.2422 67.513 32.9766 69.9609C35.737 72.3828 45.9062 77.4349 63.4844 85.1172ZM65.8786 73.8034C65.8786 73.8034 65.8792 73.8045 65.8801 73.8066C65.879 73.8045 65.8785 73.8034 65.8786 73.8034Z" fill="#F1F1F1"/>
<path d="M21 133.5C21 139.299 16.299 144 10.5 144C4.70101 144 0 139.299 0 133.5C0 127.701 4.70101 123 10.5 123C16.299 123 21 127.701 21 133.5Z" fill="#2570EC"/>
<path d="M77 133.5C77 139.299 72.299 144 66.5 144C60.701 144 56 139.299 56 133.5C56 127.701 60.701 123 66.5 123C72.299 123 77 127.701 77 133.5Z" fill="#EA4335"/>
<path d="M49 133.5C49 139.299 44.299 144 38.5 144C32.701 144 28 139.299 28 133.5C28 127.701 32.701 123 38.5 123C44.299 123 49 127.701 49 133.5Z" fill="#FBBC05"/>
<path d="M105 133.5C105 139.299 100.299 144 94.5 144C88.701 144 84 139.299 84 133.5C84 127.701 88.701 123 94.5 123C100.299 123 105 127.701 105 133.5Z" fill="#199039"/>
</svg>
