<svg width="91" height="27" viewBox="0 0 91 27" fill="none" xmlns="http://www.w3.org/2000/svg">
<path d="M28.5107 5.15039L28.6133 6.80566C29.7266 5.50684 31.25 4.85742 33.1836 4.85742C35.3027 4.85742 36.7529 5.66797 37.5342 7.28906C38.6865 5.66797 40.3076 4.85742 42.3975 4.85742C44.1455 4.85742 45.4443 5.34082 46.2939 6.30762C47.1533 7.27441 47.5928 8.7002 47.6123 10.585V21H44.0527V10.6875C44.0527 9.68164 43.833 8.94434 43.3936 8.47559C42.9541 8.00684 42.2266 7.77246 41.2109 7.77246C40.4004 7.77246 39.7363 7.99219 39.2188 8.43164C38.7109 8.86133 38.3545 9.42773 38.1494 10.1309L38.1641 21H34.6045V10.5703C34.5557 8.70508 33.6035 7.77246 31.748 7.77246C30.3223 7.77246 29.3115 8.35352 28.7158 9.51562V21H25.1562V5.15039H28.5107Z" fill="#C4C4C4"/>
<path d="M58.2471 21.293C55.9912 21.293 54.1602 20.585 52.7539 19.1689C51.3574 17.7432 50.6592 15.8486 50.6592 13.4854V13.0459C50.6592 11.4639 50.9619 10.0527 51.5674 8.8125C52.1826 7.5625 53.042 6.59082 54.1455 5.89746C55.249 5.2041 56.4795 4.85742 57.8369 4.85742C59.9951 4.85742 61.6602 5.5459 62.832 6.92285C64.0137 8.2998 64.6045 10.248 64.6045 12.7676V14.2031H54.248C54.3555 15.5117 54.79 16.5469 55.5518 17.3086C56.3232 18.0703 57.29 18.4512 58.4521 18.4512C60.083 18.4512 61.4111 17.792 62.4365 16.4736L64.3555 18.3047C63.7207 19.252 62.8711 19.9893 61.8066 20.5166C60.752 21.0342 59.5654 21.293 58.2471 21.293ZM57.8223 7.71387C56.8457 7.71387 56.0547 8.05566 55.4492 8.73926C54.8535 9.42285 54.4727 10.375 54.3066 11.5957H61.0889V11.332C61.0107 10.1406 60.6934 9.24219 60.1367 8.63672C59.5801 8.02148 58.8086 7.71387 57.8223 7.71387Z" fill="#C4C4C4"/>
<path d="M74.3604 21.293C72.1045 21.293 70.2734 20.585 68.8672 19.1689C67.4707 17.7432 66.7725 15.8486 66.7725 13.4854V13.0459C66.7725 11.4639 67.0752 10.0527 67.6807 8.8125C68.2959 7.5625 69.1553 6.59082 70.2588 5.89746C71.3623 5.2041 72.5928 4.85742 73.9502 4.85742C76.1084 4.85742 77.7734 5.5459 78.9453 6.92285C80.127 8.2998 80.7178 10.248 80.7178 12.7676V14.2031H70.3613C70.4688 15.5117 70.9033 16.5469 71.665 17.3086C72.4365 18.0703 73.4033 18.4512 74.5654 18.4512C76.1963 18.4512 77.5244 17.792 78.5498 16.4736L80.4688 18.3047C79.834 19.252 78.9844 19.9893 77.9199 20.5166C76.8652 21.0342 75.6787 21.293 74.3604 21.293ZM73.9355 7.71387C72.959 7.71387 72.168 8.05566 71.5625 8.73926C70.9668 9.42285 70.5859 10.375 70.4199 11.5957H77.2021V11.332C77.124 10.1406 76.8066 9.24219 76.25 8.63672C75.6934 8.02148 74.9219 7.71387 73.9355 7.71387Z" fill="#C4C4C4"/>
<path d="M87.9541 1.29785V5.15039H90.752V7.78711H87.9541V16.6348C87.9541 17.2402 88.0713 17.6797 88.3057 17.9531C88.5498 18.2168 88.9795 18.3486 89.5947 18.3486C90.0049 18.3486 90.4199 18.2998 90.8398 18.2021V20.9561C90.0293 21.1807 89.248 21.293 88.4961 21.293C85.7617 21.293 84.3945 19.7842 84.3945 16.7666V7.78711H81.7871V5.15039H84.3945V1.29785H87.9541Z" fill="#C4C4C4"/>
<path d="M16.1123 12.5225V11.292C16.1123 10.1592 15.9414 9.02148 15.5996 7.87891C14.6426 4.68555 12.9287 3.08887 10.458 3.08887C9.64746 3.08887 8.9248 3.2793 8.29004 3.66016C7.66504 4.04102 7.15723 4.53418 6.7666 5.13965C5.78027 6.67285 5.28711 8.63574 5.28711 11.0283V11.7607C5.28711 12.8252 5.43848 13.9238 5.74121 15.0566C6.33691 17.2637 7.30859 18.7725 8.65625 19.583C9.29102 19.9639 9.91602 20.1543 10.5312 20.1543H11.2344C11.8105 20.1543 12.4404 19.9395 13.124 19.5098C15.1162 18.2793 16.1123 15.9502 16.1123 12.5225ZM0.423828 11.9219V11.4678C0.423828 10.0322 0.692383 8.62109 1.22949 7.23438C2.28418 4.5293 4.10059 2.67871 6.67871 1.68262C7.95801 1.18457 9.21777 0.935547 10.458 0.935547H10.9121C12.4062 0.935547 13.793 1.2041 15.0723 1.74121C18.9785 3.38184 20.9316 6.74121 20.9316 11.8193C20.9316 13.6748 20.4678 15.4619 19.54 17.1807C19.0225 18.1377 18.3389 19.0215 17.4893 19.832C17.3037 20.0078 16.918 20.3154 16.332 20.7549C15.7559 21.1846 15.4678 21.4775 15.4678 21.6338C15.4678 21.9756 15.8584 22.376 16.6396 22.835C17.4209 23.3037 18.3828 23.6699 19.5254 23.9336C20.668 24.207 21.2393 24.5342 21.2393 24.915C21.2393 25.3057 20.9219 25.6475 20.2871 25.9404C19.6621 26.2334 18.8955 26.3799 17.9873 26.3799C17.0889 26.3799 16.1953 26.1846 15.3066 25.7939C8.71484 22.9131 4.90137 21.0186 3.86621 20.1104C2.84082 19.1924 2.01074 18.0352 1.37598 16.6387C0.741211 15.2324 0.423828 13.6602 0.423828 11.9219Z" fill="#C4C4C4"/>
</svg>
